<svg xmlns="http://www.w3.org/2000/svg" width="655.359" height="655.359" fill-rule="evenodd" clip-rule="evenodd" image-rendering="optimizeQuality" shape-rendering="geometricPrecision" text-rendering="geometricPrecision" viewBox="0 0 6.827 6.827"><path fill="#0277bd" d="M3.413 4.353H.853v.308h5.12v-.308h-.059z"/><path fill="#01579b" d="M3.413 4.77H.853v.307h5.12V4.77h-.059z"/><path fill="#0288d1" d="M5.97 4.214H.856c0-.455.1-.846.448-1.195a.957.957 0 0 1 1.067-.2l.123.055c-.002-.055-.005-.11-.005-.166a.957.957 0 0 1 .924-.959.956.956 0 0 1 .924.96c0 .054-.002.11-.004.165l.123-.054a.953.953 0 0 1 .388-.082c.265 0 .505.108.678.281.35.35.448.74.448 1.195z"/><path fill="none" d="M0 0h6.827v6.827H0z"/></svg>